<svg width="192" height="192" viewBox="0 0 192 192" fill="none" xmlns="http://www.w3.org/2000/svg">
<g clip-path="url(#clip0_123_744)">
<circle cx="96" cy="96" r="96" fill="white"/>
<path fill-rule="evenodd" clip-rule="evenodd" d="M130.67 26.0765C130.772 25.9745 130.937 25.9745 131.039 26.0765L132.702 27.7387C132.804 27.8407 132.804 28.0061 132.702 28.1081C132.6 28.2101 132.434 28.2101 132.332 28.1081L131.116 26.8918L131.116 165.889L132.332 164.673C132.434 164.57 132.6 164.57 132.702 164.673C132.804 164.775 132.804 164.94 132.702 165.042L131.039 166.704C130.937 166.806 130.772 166.806 130.67 166.704L129.008 165.042C128.906 164.94 128.906 164.775 129.008 164.673C129.11 164.57 129.275 164.57 129.377 164.673L130.594 165.889L130.594 26.8918L129.377 28.1081C129.275 28.2101 129.11 28.2101 129.008 28.1081C128.906 28.0061 128.906 27.8407 129.008 27.7387L130.67 26.0765Z" fill="#D3D3D3"/>
<path fill-rule="evenodd" clip-rule="evenodd" d="M15.3495 80.2981C15.3002 80.1625 15.3702 80.0126 15.5057 79.9633L17.7148 79.1598C17.8504 79.1105 18.0002 79.1804 18.0495 79.316C18.0989 79.4515 18.0289 79.6014 17.8934 79.6507L16.2769 80.2387L163.489 148.92L162.901 147.304C162.852 147.168 162.922 147.018 163.057 146.969C163.193 146.92 163.343 146.99 163.392 147.125L164.195 149.334C164.245 149.47 164.175 149.62 164.039 149.669L161.83 150.473C161.695 150.522 161.545 150.452 161.496 150.317C161.446 150.181 161.516 150.031 161.652 149.982L163.268 149.394L16.056 80.7121L16.644 82.3286C16.6933 82.4642 16.6234 82.614 16.4878 82.6633C16.3523 82.7126 16.2024 82.6427 16.1531 82.5072L15.3495 80.2981Z" fill="#D3D3D3"/>
<path fill-rule="evenodd" clip-rule="evenodd" d="M15.3931 110.227C15.2584 110.176 15.1911 110.025 15.2428 109.89L16.0848 107.695C16.1365 107.561 16.2876 107.493 16.4223 107.545C16.5569 107.597 16.6242 107.748 16.5726 107.882L15.9564 109.488L163.159 43.9208L161.553 43.3046C161.419 43.2529 161.351 43.1018 161.403 42.9672C161.455 42.8325 161.606 42.7652 161.741 42.8169L163.935 43.6589C164.07 43.7106 164.137 43.8617 164.086 43.9963L163.243 46.191C163.192 46.3257 163.041 46.393 162.906 46.3413C162.771 46.2897 162.704 46.1386 162.756 46.0039L163.372 44.3979L16.1689 109.965L17.7749 110.582C17.9096 110.633 17.9769 110.784 17.9252 110.919C17.8735 111.054 17.7225 111.121 17.5878 111.069L15.3931 110.227Z" fill="#D3D3D3"/>
<path d="M68.8221 95.476C68.8221 106.295 60.0517 115.065 49.2329 115.065C38.4142 115.065 29.6438 106.295 29.6438 95.476C29.6438 84.6572 38.4142 75.8868 49.2329 75.8868C60.0517 75.8868 68.8221 84.6572 68.8221 95.476Z" fill="#31C63F"/>
<path d="M150.313 60.2154C150.313 71.0341 141.543 79.8045 130.724 79.8045C119.905 79.8045 111.135 71.0341 111.135 60.2154C111.135 49.3966 119.905 40.6262 130.724 40.6262C141.543 40.6262 150.313 49.3966 150.313 60.2154Z" fill="#FFA41D"/>
<path d="M150.313 132.304C150.313 143.123 141.543 151.893 130.724 151.893C119.905 151.893 111.135 143.123 111.135 132.304C111.135 121.485 119.905 112.715 130.724 112.715C141.543 112.715 150.313 121.485 150.313 132.304Z" fill="#F323C6"/>
<path d="M51.8374 105.401H47.208L40.3467 87.0364H45.5118L50.6004 101.818L55.2043 87.0364H58.3416L51.8374 105.401Z" fill="white"/>
<path d="M140.279 60.4106C140.279 61.3033 140.16 62.1535 139.922 62.9612C139.684 63.7604 139.348 64.5001 138.915 65.1803C138.49 65.8605 137.979 66.4769 137.384 67.0295C136.789 67.5737 136.13 68.0371 135.407 68.4197C134.693 68.8023 133.924 69.0998 133.099 69.3124C132.283 69.5164 131.441 69.6185 130.574 69.6185H122.476V51.2537H130.574C131.441 51.2537 132.283 51.3557 133.099 51.5597C133.915 51.7638 134.681 52.0571 135.395 52.4397C136.117 52.8138 136.776 53.2729 137.371 53.8171C137.975 54.3612 138.49 54.9734 138.915 55.6536C139.348 56.3252 139.684 57.0649 139.922 57.8726C140.16 58.6719 140.279 59.5178 140.279 60.4106ZM135.14 60.4106C135.14 59.4158 135.016 58.4721 134.77 57.5793C134.532 56.6781 134.158 55.8874 133.648 55.2072C133.137 54.527 132.487 53.9871 131.696 53.5875C130.914 53.1879 129.975 52.9881 128.878 52.9881H127.539V67.833H128.878C129.958 67.833 130.889 67.6332 131.671 67.2336C132.461 66.8255 133.112 66.2814 133.622 65.6012C134.141 64.9125 134.523 64.1218 134.77 63.2291C135.016 62.3363 135.14 61.3968 135.14 60.4106Z" fill="white"/>
<path d="M140.279 133.021C140.279 133.914 140.16 134.764 139.922 135.572C139.684 136.371 139.348 137.111 138.915 137.791C138.49 138.471 137.979 139.087 137.384 139.64C136.789 140.184 136.13 140.648 135.407 141.03C134.693 141.413 133.924 141.71 133.099 141.923C132.283 142.127 131.441 142.229 130.574 142.229H122.476V123.864H130.574C131.441 123.864 132.283 123.966 133.099 124.17C133.915 124.374 134.681 124.668 135.395 125.05C136.117 125.424 136.776 125.883 137.371 126.428C137.975 126.972 138.49 127.584 138.915 128.264C139.348 128.936 139.684 129.675 139.922 130.483C140.16 131.282 140.279 132.128 140.279 133.021ZM135.14 133.021C135.14 132.026 135.016 131.083 134.77 130.19C134.532 129.289 134.158 128.498 133.648 127.818C133.137 127.137 132.487 126.598 131.696 126.198C130.914 125.798 129.975 125.599 128.878 125.599H127.539V140.443H128.878C129.958 140.443 130.889 140.244 131.671 139.844C132.461 139.436 133.112 138.892 133.622 138.212C134.141 137.523 134.523 136.732 134.77 135.84C135.016 134.947 135.14 134.007 135.14 133.021Z" fill="white"/>
<path d="M130.02 87.1184H131.952V105.402H130.02V87.1184Z" fill="black"/>
<path d="M102.324 87.1184H111.204C112.545 87.1184 113.616 87.5015 114.417 88.2676C115.235 89.0164 115.644 90.0089 115.644 91.2452V93.1519C115.644 94.0747 115.348 94.8931 114.756 95.607C114.164 96.3035 113.372 96.7998 112.379 97.0958V97.1219C112.902 97.4005 113.372 97.8445 113.79 98.454C114.225 99.0634 114.556 99.7512 114.782 100.517L116.219 105.402H114.234L112.797 100.517C112.553 99.6642 112.127 98.9764 111.517 98.454C110.925 97.9316 110.272 97.6704 109.559 97.6704H104.256V105.402H102.324V87.1184ZM110.525 95.9466C111.483 95.9466 112.249 95.6941 112.823 95.1891C113.415 94.6668 113.711 93.9877 113.711 93.1519V91.1407C113.711 90.4442 113.476 89.887 113.006 89.4691C112.536 89.0512 111.918 88.8423 111.152 88.8423H104.256V95.9466H110.525Z" fill="black"/>
<path d="M77.9124 105.402C77.3727 105.402 76.9548 105.254 76.6587 104.958C76.3627 104.644 76.2147 104.218 76.2147 103.678V87.1184H88.4906V88.79H78.1475V95.2153H87.707V96.8869H78.1475V103.73H88.4906V105.402H77.9124Z" fill="black"/>
</g>
<defs>
<clipPath id="clip0_123_744">
<rect width="192" height="192" fill="white"/>
</clipPath>
</defs>
</svg>
